<?xml version="1.0" encoding="utf-8"?>
<!-- Generator: Adobe Illustrator 21.0.0, SVG Export Plug-In . SVG Version: 6.00 Build 0)  -->
<svg version="1.1" id="Capa_1" xmlns="http://www.w3.org/2000/svg" xmlns:xlink="http://www.w3.org/1999/xlink" x="0px" y="0px"
	 width="150px" height="150px" viewBox="0 0 150 150" style="enable-background:new 0 0 150 150;" xml:space="preserve">
<g fill="#be1e2d">
	<path d="M89.3,87.3c0-1.1-0.9-2-2-2H62.7c-1.1,0-2,0.9-2,2V113c0,0.2,0,0.3,0,0.5c-0.1,0.5,0,0.9,0.3,1.3c0,0.1,0.1,0.3,0.1,0.4
		l6.9,17.1c0.9,2.3,3.2,3.9,5.7,3.9h2.6c2.5,0,4.8-1.5,5.7-3.9l6.9-17.1c0.1-0.1,0.1-0.3,0.1-0.4c0.2-0.4,0.3-0.9,0.3-1.3
		c0-0.2,0-0.3,0-0.5V87.3z M73,89.3v6.1c0,1.1,0.9,2,2,2c1.1,0,2-0.9,2-2v-6.1h8.2v20.1c-1.3-0.8-2.8-1.2-4.3-1.3
		c-1.4,0-2.7,0.4-3.9,1.1v-5.6c0-1.1-0.9-2-2-2c-1.1,0-2,0.9-2,2v5.6c-1.2-0.7-2.5-1-3.9-1.1c-1.5,0-3,0.5-4.3,1.3V89.3H73z
		 M80.4,125.5c-3.4-1.8-7.4-1.8-10.8,0l-4.5-11.3c1-1.1,2.5-1.8,4-2c1.8,0.2,3.4,1.3,4.3,2.8c0,0.1,0.1,0.1,0.2,0.1
		c0.1,0.1,0.2,0.2,0.2,0.3c0.1,0,0.1,0.1,0.2,0.1c0.1,0.1,0.2,0.1,0.3,0.1c0.2,0.1,0.4,0.1,0.5,0.1c0.1,0,0.1,0,0.2,0
		c0.1,0,0.1,0,0.2,0c0.1,0,0.2,0,0.3,0c0.1,0,0.3-0.1,0.4-0.1c0.1,0,0.2-0.1,0.3-0.1c0,0,0.1,0,0.1-0.1c0.1-0.1,0.1-0.1,0.2-0.2
		c0.1-0.1,0.1-0.1,0.2-0.2c0.9-1.6,2.5-2.6,4.3-2.8h0c1.5,0.2,2.9,0.9,4,2L80.4,125.5z M76.3,132.2h-2.6c-0.8,0-1.6-0.5-1.9-1.3
		l-0.7-1.6c2.4-1.5,5.4-1.5,7.7,0l-0.7,1.6C77.9,131.7,77.2,132.2,76.3,132.2z"/>
	<path d="M44.4,54.8c0.1,1.1,1.1,1.9,2.2,1.8c3.2-0.6,6.5,0.4,8.9,2.6c6.2,5.9,5.2,19.6,5.2,19.7c0,0.5,0.1,1.1,0.5,1.5
		c0.4,0.4,0.9,0.7,1.4,0.7h0.2c1.1,0,2-0.8,2-1.9c0-0.6,1.1-15.7-6.4-23c-3.3-3.1-7.8-4.5-12.2-3.7c-0.5,0.1-1,0.3-1.4,0.8
		C44.5,53.7,44.3,54.3,44.4,54.8z"/>
	<path d="M101.1,66.8c1.1,0.3,2.2-0.4,2.5-1.5c0.3-1.1-0.4-2.2-1.5-2.5c-5.3-1.3-9.4-0.7-12.4,2c-5.4,4.8-4.5,14.2-4.4,14.6
		c0.1,1,1,1.8,2,1.8c0.1,0,0.2,0,0.2,0c1.1-0.1,1.9-1.1,1.8-2.2c0-0.1-0.7-7.7,3-11C94.3,66.2,97.2,65.8,101.1,66.8z"/>
	<path d="M75,70.9c1.1,0,2-0.9,2-2c0-8.3,1.4-31.2,7.6-37.4c0.5-0.5,0.7-1.3,0.6-2s-0.7-1.3-1.5-1.5c-0.7-0.2-1.5,0-2,0.6
		c-8.7,8.7-8.8,39-8.8,40.3C73,70,73.9,70.9,75,70.9z"/>
	<path d="M95.4,42.3c1.1,0,2-0.9,2-2v-4.1c0-1.1-0.9-2-2-2c-1.1,0-2,0.9-2,2v4.1C93.4,41.4,94.3,42.3,95.4,42.3z"/>
	<path d="M105.6,44.4c0-1.1-0.9-2-2-2h-4.1c-1.1,0-2,0.9-2,2s0.9,2,2,2h4.1C104.7,46.4,105.6,45.5,105.6,44.4z"/>
	<path d="M93.4,52.5c0,1.1,0.9,2,2,2c1.1,0,2-0.9,2-2v-4.1c0-1.1-0.9-2-2-2c-1.1,0-2,0.9-2,2V52.5z"/>
	<path d="M87.3,46.4h4.1c1.1,0,2-0.9,2-2s-0.9-2-2-2h-4.1c-1.1,0-2,0.9-2,2S86.1,46.4,87.3,46.4z"/>
	<path d="M126.1,30.1c1.1,0,2-0.9,2-2v-4.1c0-1.1-0.9-2-2-2c-1.1,0-2,0.9-2,2V28C124,29.1,124.9,30.1,126.1,30.1z"/>
	<path d="M130.2,34.1h4.1c1.1,0,2-0.9,2-2c0-1.1-0.9-2-2-2h-4.1c-1.1,0-2,0.9-2,2C128.1,33.2,129,34.1,130.2,34.1z"/>
	<path d="M126.1,34.1c-1.1,0-2,0.9-2,2v4.1c0,1.1,0.9,2,2,2c1.1,0,2-0.9,2-2v-4.1C128.1,35.1,127.2,34.1,126.1,34.1z"/>
	<path d="M117.9,34.1h4.1c1.1,0,2-0.9,2-2c0-1.1-0.9-2-2-2h-4.1c-1.1,0-2,0.9-2,2C115.9,33.2,116.8,34.1,117.9,34.1z"/>
	<path d="M48.4,26c1.1,0,2-0.9,2-2v-4.1c0-1.1-0.9-2-2-2c-1.1,0-2,0.9-2,2v4.1C46.4,25.1,47.3,26,48.4,26z"/>
	<path d="M52.5,30.1h4.1c1.1,0,2-0.9,2-2c0-1.1-0.9-2-2-2h-4.1c-1.1,0-2,0.9-2,2C50.5,29.1,51.4,30.1,52.5,30.1z"/>
	<path d="M50.5,36.2v-4.1c0-1.1-0.9-2-2-2c-1.1,0-2,0.9-2,2v4.1c0,1.1,0.9,2,2,2C49.6,38.2,50.5,37.3,50.5,36.2z"/>
	<path d="M40.3,30.1h4.1c1.1,0,2-0.9,2-2c0-1.1-0.9-2-2-2h-4.1c-1.1,0-2,0.9-2,2C38.2,29.1,39.1,30.1,40.3,30.1z"/>
	<path d="M28,58.7c0,1.1,0.9,2,2,2c1.1,0,2-0.9,2-2v-4.1c0-1.1-0.9-2-2-2c-1.1,0-2,0.9-2,2V58.7z"/>
	<path d="M34.1,64.8h4.1c1.1,0,2-0.9,2-2c0-1.1-0.9-2-2-2h-4.1c-1.1,0-2,0.9-2,2C32.1,63.9,33,64.8,34.1,64.8z"/>
	<path d="M30.1,73c1.1,0,2-0.9,2-2v-4.1c0-1.1-0.9-2-2-2c-1.1,0-2,0.9-2,2v4.1C28,72,28.9,73,30.1,73z"/>
	<path d="M26,60.7h-4.1c-1.1,0-2,0.9-2,2c0,1.1,0.9,2,2,2H26c1.1,0,2-0.9,2-2C28,61.6,27.1,60.7,26,60.7z"/>
	<path d="M20.9,46.4c3.9,0,7.2-3.2,7.2-7.2c0-3.9-3.2-7.2-7.2-7.2s-7.2,3.2-7.2,7.2C13.7,43.2,16.9,46.4,20.9,46.4z M20.9,36.2
		c1.7,0,3.1,1.4,3.1,3.1c0,1.7-1.4,3.1-3.1,3.1s-3.1-1.4-3.1-3.1C17.8,37.6,19.2,36.2,20.9,36.2z"/>
	<path d="M116.9,70.9c3.9,0,7.2-3.2,7.2-7.2s-3.2-7.2-7.2-7.2s-7.2,3.2-7.2,7.2S112.9,70.9,116.9,70.9z M116.9,60.7
		c1.7,0,3.1,1.4,3.1,3.1c0,1.7-1.4,3.1-3.1,3.1s-3.1-1.4-3.1-3.1C113.8,62.1,115.2,60.7,116.9,60.7z"/>
	<path d="M98.5,28c3.9,0,7.2-3.2,7.2-7.2s-3.2-7.2-7.2-7.2c-3.9,0-7.2,3.2-7.2,7.2c0,1.9,0.8,3.7,2.1,5.1C94.8,27.3,96.6,28,98.5,28
		z M98.5,17.8c1.7,0,3.1,1.4,3.1,3.1s-1.4,3.1-3.1,3.1s-3.1-1.4-3.1-3.1S96.8,17.8,98.5,17.8z"/>
	<path d="M64.8,52.5c0,1.1,0.9,2,2,2c1.1,0,2-0.9,2-2C68.5,46.1,66.2,40,62.3,35c-0.7-0.9-2-1.1-2.9-0.4c-0.9,0.7-1.1,2-0.4,2.9
		C62.4,41.8,64.4,47,64.8,52.5z"/>
</g>
</svg>
