<?xml version="1.0" encoding="utf-8"?>
<!-- Generator: Adobe Illustrator 21.0.0, SVG Export Plug-In . SVG Version: 6.00 Build 0)  -->
<svg version="1.1" id="Capa_1" xmlns="http://www.w3.org/2000/svg" xmlns:xlink="http://www.w3.org/1999/xlink" x="0px" y="0px"
	 width="150px" height="150px" viewBox="0 0 150 150" style="enable-background:new 0 0 150 150;" xml:space="preserve">
<g fill="#be1e2d">
	<path d="M85.5,122.2h-4.2v-20.6c0-1.2-0.9-2.1-2.1-2.1s-2.1,0.9-2.1,2.1v20.6H22.5v-42H40c1.2,0,2.1-0.9,2.1-2.1S41.1,76,40,76
		H20.4c-1.2,0-2.1,0.9-2.1,2.1v44.1h-4.2c-1.2,0-2.1,0.9-2.1,2.1v4.2c0,5.8,4.7,10.5,10.5,10.5h54.6c5.8,0,10.5-4.7,10.5-10.5v-4.2
		C87.6,123.2,86.7,122.2,85.5,122.2z M83.4,128.5c0,3.5-2.8,6.3-6.3,6.3h-4.2v-2.1c0-1.2-0.9-2.1-2.1-2.1s-2.1,0.9-2.1,2.1v2.1H30.9
		v-2.1c0-1.2-0.9-2.1-2.1-2.1c-1.2,0-2.1,0.9-2.1,2.1v2.1h-4.2c-3.5,0-6.3-2.8-6.3-6.3v-2.1h67.2V128.5z"/>
	<path d="M121.2,25.7h4.2c1.2,0,2.1-0.9,2.1-2.1s-0.9-2.1-2.1-2.1h-4.2c-3.5,0-6.3,2.8-6.3,6.3v2.1h-2.1c-1.2,0-2.1,0.9-2.1,2.1
		c0,1.2,0.9,2.1,2.1,2.1h2.1v6.3c0,1.2,0.9,2.1,2.1,2.1s2.1-0.9,2.1-2.1v-6.3h2.1c1.2,0,2.1-0.9,2.1-2.1c0-1.2-0.9-2.1-2.1-2.1h-2.1
		v-2.1C119.1,26.6,120,25.7,121.2,25.7z"/>
	<path d="M131.7,13.1h-25.2c-3.5,0-6.3,2.8-6.3,6.3v4.2c0,1.2,0.9,2.1,2.1,2.1s2.1-0.9,2.1-2.1v-4.2c0-1.2,0.9-2.1,2.1-2.1h25.2
		c1.2,0,2.1,0.9,2.1,2.1v25.2c0,1.2-0.9,2.1-2.1,2.1h-25.2c-1.2,0-2.1-0.9-2.1-2.1V32c0-1.2-0.9-2.1-2.1-2.1s-2.1,0.9-2.1,2.1v12.6
		c0,3.5,2.8,6.3,6.3,6.3h25.2c3.5,0,6.3-2.8,6.3-6.3V19.4C138,15.9,135.2,13.1,131.7,13.1z"/>
	<path d="M110.7,97c0,4.6,3.8,8.4,8.4,8.4c4.6,0,8.4-3.8,8.4-8.4s-3.8-8.4-8.4-8.4C114.5,88.6,110.7,92.4,110.7,97z M123.3,97
		c0,2.3-1.9,4.2-4.2,4.2s-4.2-1.9-4.2-4.2s1.9-4.2,4.2-4.2S123.3,94.7,123.3,97z"/>
	<path d="M131.7,78.1h-25.2c-3.5,0-6.3,2.8-6.3,6.3v25.2c0,3.5,2.8,6.3,6.3,6.3h25.2c3.5,0,6.3-2.8,6.3-6.3v-4.2
		c0-1.2-0.9-2.1-2.1-2.1c-1.2,0-2.1,0.9-2.1,2.1v4.2c0,1.2-0.9,2.1-2.1,2.1h-25.2c-1.2,0-2.1-0.9-2.1-2.1V84.4
		c0-1.2,0.9-2.1,2.1-2.1h25.2c1.2,0,2.1,0.9,2.1,2.1V97c0,1.2,0.9,2.1,2.1,2.1c1.2,0,2.1-0.9,2.1-2.1V84.4
		C138,81,135.2,78.1,131.7,78.1z"/>
	<path d="M59.2,37.9c0.3,0.2,0.7,0.3,1.1,0.3c0.3,0,0.7-0.1,0.9-0.2l12.6-6.3c1-0.5,1.4-1.8,0.9-2.8c-0.2-0.4-0.5-0.7-0.9-0.9
		l-12.6-6.3c-1-0.5-2.3-0.1-2.8,0.9c-0.1,0.3-0.2,0.6-0.2,0.9v12.6C58.2,36.9,58.6,37.6,59.2,37.9z M62.4,27l5.8,2.9l-5.8,2.9V27z"
		/>
	<path d="M64.5,48.8c10.4,0,18.9-8.5,18.9-18.9S74.9,11,64.5,11s-18.9,8.5-18.9,18.9S54.1,48.8,64.5,48.8z M64.5,15.2
		c8.1,0,14.7,6.6,14.7,14.7s-6.6,14.7-14.7,14.7S49.8,38,49.8,29.9S56.4,15.2,64.5,15.2z"/>
	<path d="M85.5,57.2c0.7,0,1.3-0.3,1.7-0.8l6.3-8.4c0.7-0.9,0.5-2.2-0.4-2.9c-0.9-0.7-2.2-0.5-2.9,0.4l-6.3,8.4
		c-0.7,0.9-0.5,2.2,0.4,2.9C84.6,57,85,57.2,85.5,57.2z"/>
	<path d="M90.1,64.7c0.4,0.5,1,0.8,1.7,0.8c0.5,0,0.9-0.1,1.3-0.4l8.4-6.3c0.9-0.7,1.1-2,0.4-2.9c-0.7-0.9-2-1.1-2.9-0.4l-8.4,6.3
		C89.6,62.5,89.4,63.8,90.1,64.7L90.1,64.7z"/>
	<path d="M110.7,69.3c-0.2-1.1-1.3-1.9-2.4-1.7c0,0-0.1,0-0.1,0l-10.5,2.1c-1.2,0.1-2,1.2-1.9,2.3s1.2,2,2.3,1.9h0.4l10.5-2.1
		C110.2,71.6,110.9,70.6,110.7,69.3C110.7,69.4,110.7,69.4,110.7,69.3z"/>
	<path d="M14.1,69.8h25.2c1.2,0,2.1-0.9,2.1-2.1V34.1c0-1.2-0.9-2.1-2.1-2.1H14.1c-1.2,0-2.1,0.9-2.1,2.1v33.6
		C12,68.8,12.9,69.8,14.1,69.8z M16.2,36.2h21v29.4h-21V36.2z"/>
	<path d="M30.9,40.4h-4.2c-1.2,0-2.1,0.9-2.1,2.1c0,1.2,0.9,2.1,2.1,2.1h4.2c1.2,0,2.1-0.9,2.1-2.1C33,41.3,32.1,40.4,30.9,40.4z"/>
	<path d="M30.9,48.8h-8.4c-1.2,0-2.1,0.9-2.1,2.1s0.9,2.1,2.1,2.1h8.4c1.2,0,2.1-0.9,2.1-2.1S32.1,48.8,30.9,48.8z"/>
	<path d="M30.9,57.2h-8.4c-1.2,0-2.1,0.9-2.1,2.1s0.9,2.1,2.1,2.1h8.4c1.2,0,2.1-0.9,2.1-2.1S32.1,57.2,30.9,57.2z"/>
	<path d="M83.7,69.1c-0.6-1-1.9-1.4-2.9-0.8c-1,0.6-1.4,1.9-0.8,2.9l9.3,16L55.7,99.8c0,0,0,0-0.1,0h-0.2l-5.5,3.1l-3.6,2.1
		c-1,0.6-2.1,0.7-3.2,0.4c-1.1-0.3-2-1-2.5-2l-4.2-7.3c-1-2-0.3-4.4,1.6-5.5l7.3-4.2l5.2,9.1c0.4,0.7,1.1,1.1,1.8,1
		c1.2,0,2.1-0.9,2.1-2.1c0-0.4-0.1-0.7-0.3-1.1l-5.4-9.4L75,62.4l0.9,1.5c0.6,1,1.9,1.4,2.9,0.8c1-0.6,1.4-1.9,0.8-2.9l-2.1-3.6
		c-0.3-0.5-0.8-0.9-1.4-1c-0.6-0.1-1.2,0-1.7,0.4L44.8,81.9L35.9,87C32.6,89,31,92.9,32,96.5l-2.1,1.2c-3,1.7-4.1,5.6-2.3,8.6
		c0.8,1.5,2.2,2.5,3.8,2.9c0.5,0.1,1.1,0.2,1.6,0.2c1.1,0,2.2-0.3,3.1-0.8l2.1-1.2c1,1,2.3,1.8,3.7,2.2c0.7,0.2,1.5,0.3,2.2,0.3
		c1.5,0,2.9-0.4,4.2-1.1l1.8-1l4.2,7.3c1.7,3,5.6,4,8.6,2.3c3-1.7,4-5.6,2.3-8.6c0,0,0,0,0,0l-3.8-6.7L93,90.3
		c0.6-0.2,1-0.7,1.2-1.3c0.2-0.6,0.2-1.2-0.1-1.7L83.7,69.1z M34.1,105c-0.5,0.3-1.1,0.4-1.6,0.2c-0.5-0.1-1-0.5-1.3-1
		c-0.3-0.5-0.4-1.1-0.2-1.6c0.1-0.5,0.5-1,1-1.3l1.8-1l2.1,3.6L34.1,105z M61.7,110.9c0.3,0.5,0.4,1.1,0.2,1.6c-0.1,0.5-0.5,1-1,1.3
		c-1,0.6-2.3,0.2-2.9-0.8l-4.2-7.3l3.5-2h0.2L61.7,110.9z"/>
</g>
</svg>
