<?xml version="1.0" encoding="utf-8"?>
<!-- Generator: Adobe Illustrator 21.0.0, SVG Export Plug-In . SVG Version: 6.00 Build 0)  -->
<svg version="1.1" id="Capa_1" xmlns="http://www.w3.org/2000/svg" xmlns:xlink="http://www.w3.org/1999/xlink" x="0px" y="0px"
	 width="150px" height="150px" viewBox="0 0 150 150" style="enable-background:new 0 0 150 150;" xml:space="preserve">
	<g fill="#be1e2d">
		<circle cx="21.6" cy="22.9" r="2.6"/>
		<circle cx="32.3" cy="22.9" r="2.6"/>
		<circle cx="43" cy="22.9" r="2.6"/>
		<path d="M133.9,13.2H16.1c-3.9,0-7.1,3.2-7.1,7.1v42c0,1.1,0.9,1.9,1.9,1.9s1.9-0.9,1.9-1.9V32.7h124.3v9c0,1.1,0.9,1.9,1.9,1.9
			s1.9-0.9,1.9-1.9V20.3C141,16.3,137.8,13.2,133.9,13.2z M12.9,28.8v-8.5c0-1.8,1.4-3.2,3.2-3.2h117.8c1.8,0,3.2,1.4,3.2,3.2v8.5
			H12.9z"/>
		<path d="M139.1,48.7c-1.1,0-1.9,0.9-1.9,1.9v53.6c0,1.8-1.4,3.2-3.2,3.2H16.1c-1.8,0-3.2-1.4-3.2-3.2V71.3c0-1.1-0.9-1.9-1.9-1.9
			S9,70.2,9,71.3v32.9c0,3.9,3.2,7.1,7.1,7.1h117.8c3.9,0,7.1-3.2,7.1-7.1V50.6C141,49.6,140.1,48.7,139.1,48.7z"/>
		<path d="M68.5,48h13c1.1,0,1.9-0.9,1.9-1.9c0-1.1-0.9-1.9-1.9-1.9h-13c-1.1,0-1.9,0.9-1.9,1.9C66.5,47.2,67.4,48,68.5,48z"/>
		<path d="M83.4,53.9c0-1.1-0.9-1.9-1.9-1.9h-13c-1.1,0-1.9,0.9-1.9,1.9s0.9,1.9,1.9,1.9h13C82.5,55.8,83.4,55,83.4,53.9z"/>
		<path d="M127.3,117.9H91.9c-1.1,0-1.9,0.9-1.9,1.9c0,1.1,0.9,1.9,1.9,1.9h15.8v3.7H35.2c-1.1,0-1.9,0.9-1.9,1.9
			c0,1.1,0.9,1.9,1.9,1.9h72.5v3.7H32.5l-6.8-5.6l6.8-5.6h50.4c1.1,0,1.9-0.9,1.9-1.9c0-1.1-0.9-1.9-1.9-1.9H31.8
			c-0.5,0-0.9,0.2-1.2,0.4l-9.1,7.6c-0.4,0.4-0.7,0.9-0.7,1.5c0,0.6,0.3,1.1,0.7,1.5l9.1,7.6c0.3,0.3,0.8,0.4,1.2,0.4h95.6
			c1.1,0,1.9-0.9,1.9-1.9v-15.1C129.3,118.7,128.4,117.9,127.3,117.9L127.3,117.9z M125.4,133h-13.8v-11.2h13.8V133z"/>
		<path d="M35.4,67.6c-1.1,0-1.9,0.9-1.9,1.9v7.7H22.4c-1.1,0-1.9,0.9-1.9,1.9V100c0,1.1,0.9,1.9,1.9,1.9h26c1.1,0,1.9-0.9,1.9-1.9
			V79.2c0-1.1-0.9-1.9-1.9-1.9H37.3v-5.8h35.7v5.8H62c-1.1,0-1.9,0.9-1.9,1.9V100c0,1.1,0.9,1.9,1.9,1.9h26c1.1,0,1.9-0.9,1.9-1.9
			V79.2c0-1.1-0.9-1.9-1.9-1.9H76.9v-5.8h35.7v5.8h-11.1c-1.1,0-1.9,0.9-1.9,1.9V100c0,1.1,0.9,1.9,1.9,1.9h26c1.1,0,1.9-0.9,1.9-1.9
			V79.2c0-1.1-0.9-1.9-1.9-1.9h-11.1v-7.7c0-1.1-0.9-1.9-1.9-1.9H76.9v-5.2H88c1.1,0,1.9-0.9,1.9-1.9V39.6c0-1.1-0.9-1.9-1.9-1.9H62
			c-1.1,0-1.9,0.9-1.9,1.9v20.8c0,1.1,0.9,1.9,1.9,1.9h11.1v5.2H35.4z M46.5,98.1H24.3v-17h22.2V98.1z M86.1,98.1H63.9v-17h22.2V98.1z
			M125.7,98.1h-22.2v-17h22.2V98.1z M63.9,41.5h22.2v17H63.9V41.5z"/>
		<path d="M106.1,85.7c0,1.1,0.9,1.9,1.9,1.9h13c1.1,0,1.9-0.9,1.9-1.9c0-1.1-0.9-1.9-1.9-1.9h-13C107,83.7,106.1,84.6,106.1,85.7z"/>
		<path d="M121.1,91.6h-13c-1.1,0-1.9,0.9-1.9,1.9c0,1.1,0.9,1.9,1.9,1.9h13c1.1,0,1.9-0.9,1.9-1.9C123,92.4,122.2,91.6,121.1,91.6z"
			/>
		<path d="M66.6,85.7c0,1.1,0.9,1.9,1.9,1.9h13c1.1,0,1.9-0.9,1.9-1.9c0-1.1-0.9-1.9-1.9-1.9h-13C67.4,83.7,66.6,84.6,66.6,85.7z"/>
		<path d="M81.5,91.6h-13c-1.1,0-1.9,0.9-1.9,1.9c0,1.1,0.9,1.9,1.9,1.9h13c1.1,0,1.9-0.9,1.9-1.9C83.4,92.4,82.6,91.6,81.5,91.6z"/>
		<path d="M27,85.7c0,1.1,0.9,1.9,1.9,1.9h13c1.1,0,1.9-0.9,1.9-1.9c0-1.1-0.9-1.9-1.9-1.9h-13C27.8,83.7,27,84.6,27,85.7z"/>
		<path d="M41.9,91.6h-13c-1.1,0-1.9,0.9-1.9,1.9c0,1.1,0.9,1.9,1.9,1.9h13c1.1,0,1.9-0.9,1.9-1.9C43.9,92.4,43,91.6,41.9,91.6z"/>
	</g>
</svg>
